<svg xmlns="http://www.w3.org/2000/svg" viewBox="0 0 64 64">
  <defs>
    <clipPath id="table">
      <rect x="2" y="2" width="60" height="60" rx="7"/>
    </clipPath>
  </defs>
  <g clip-path="url(#table)">
    <path fill="#d9f0cf" d="M2 2h15v60H2zM32 2h15v60H32z"/>
    <path fill="#ffd0d3" d="M17 2h15v60H17zM47 2h15v60H47z"/>
    <path fill="#edf0ea" d="M2 2h60v10H2z"/>
    <path d="M2 12h60M17 2v60M32 2v60M47 2v60M2 46h60M17 30h45M32 22h30M47 38h15M32 54h30" fill="none" stroke="#516052" stroke-width="2"/>
  </g>
  <rect x="2" y="2" width="60" height="60" rx="7" fill="none" stroke="#516052" stroke-width="2"/>
</svg>
